<svg xmlns="http://www.w3.org/2000/svg" viewBox="0 0 256 256">
<defs>
 <linearGradient id="rim" x2="1" y2="1"><stop stop-color="#fff0bb"/><stop offset=".38" stop-color="#d4a968"/><stop offset=".72" stop-color="#805a43"/><stop offset="1" stop-color="#f5dba0"/></linearGradient>
 <linearGradient id="body" x2="0" y2="1"><stop stop-color="#403c62"/><stop offset=".56" stop-color="#252842"/><stop offset="1" stop-color="#111a2f"/></linearGradient>
 <linearGradient id="face" x2="0" y2="1"><stop stop-color="#ffeac0"/><stop offset="1" stop-color="#bd9862"/></linearGradient>
 <filter id="shadow" x="-.3" y="-.3" width="1.6" height="1.6"><feGaussianBlur stdDeviation="5"/></filter>
</defs>
<path d="M128 12 244 128 128 244 12 128Z" fill="#090c19" opacity=".65" filter="url(#shadow)"/>
<path d="M128 7 249 128 128 249 7 128Z" fill="url(#rim)"/>
<path d="M128 16 240 128 128 240 16 128Z" fill="url(#body)" stroke="#111529" stroke-width="3"/>
<path d="M128 27 229 128 128 229 27 128Z" fill="none" stroke="#b6996d" stroke-opacity=".6" stroke-width="2"/>
<path d="M128 37 219 128 128 219 37 128Z" fill="none" stroke="#837ba6" stroke-opacity=".42"/>
<path d="M44 128h20m128 0h20M128 44v20m0 128v20" stroke="#edc988" stroke-width="3" stroke-linecap="round"/>
<circle cx="128" cy="128" r="67" fill="#151d36" stroke="#756b7e" stroke-width="2"/>

<g transform="rotate(-14 99 124)">
 <rect x="75" y="91" width="48" height="71" rx="6" fill="#47786d" stroke="#283d48" stroke-width="2"/>
 <rect x="75" y="86" width="48" height="71" rx="6" fill="url(#face)" stroke="#735b54" stroke-width="2"/>
 <g fill="none" stroke="#397c69" stroke-width="4" stroke-linecap="round">
  <path d="M89 107v12m20-12v12M89 132v12m20-12v12"/>
  <path d="M85 107h8m12 0h8m-28 12h8m12 0h8M85 132h8m12 0h8m-28 12h8m12 0h8" stroke-width="2"/>
 </g>
</g>
<g transform="rotate(14 157 124)">
 <rect x="133" y="91" width="48" height="71" rx="6" fill="#47786d" stroke="#283d48" stroke-width="2"/>
 <rect x="133" y="86" width="48" height="71" rx="6" fill="url(#face)" stroke="#735b54" stroke-width="2"/>
 <g fill="none" stroke="#397c69" stroke-width="3">
  <circle cx="148" cy="108" r="5"/><circle cx="166" cy="108" r="5"/>
  <circle cx="148" cy="134" r="5"/><circle cx="166" cy="134" r="5"/>
 </g>
</g>
<rect x="103" y="82" width="50" height="81" rx="6" fill="#47786d" stroke="#283d48" stroke-width="2"/>
<rect x="103" y="76" width="50" height="81" rx="6" fill="url(#face)" stroke="#735b54" stroke-width="2"/>
<path d="M113 103h30v25h-30ZM128 90v53" fill="none" stroke="#a6444b" stroke-width="6" stroke-linejoin="round"/>
<path d="M91 172c23 10 51 10 74 0" fill="none" stroke="#d5ae73" stroke-width="5" stroke-linecap="round"/>

</svg>